<?xml version="1.0" encoding="UTF-8"?>
<!DOCTYPE svg PUBLIC "-//W3C//DTD SVG 1.1//EN" "http://www.w3.org/Graphics/SVG/1.1/DTD/svg11.dtd">
<svg xmlns="http://www.w3.org/2000/svg" version="1.1" width="512px" height="512px" style="shape-rendering:geometricPrecision; text-rendering:geometricPrecision; image-rendering:optimizeQuality; fill-rule:evenodd; clip-rule:evenodd" xmlns:xlink="http://www.w3.org/1999/xlink">
<g><path style="opacity:0.993" fill="#41a0a4" d="M 148.5,-0.5 C 149.167,-0.5 149.833,-0.5 150.5,-0.5C 187.905,1.20054 216.572,17.8672 236.5,49.5C 191.861,75.1549 147.194,100.822 102.5,126.5C 79.6842,82.4015 85.0176,42.0682 118.5,5.5C 121.906,3.89102 125.573,2.72436 129.5,2C 135.977,1.13789 142.311,0.304556 148.5,-0.5 Z"/></g>
<g><path style="opacity:0.993" fill="#81d4d7" d="M 360.5,-0.5 C 361.167,-0.5 361.833,-0.5 362.5,-0.5C 368.689,0.304556 375.023,1.13789 381.5,2C 385.427,2.72436 389.094,3.89102 392.5,5.5C 421.672,37.2081 429.172,73.5414 415,114.5C 413.487,118.889 411.32,122.889 408.5,126.5C 363.806,100.822 319.139,75.1549 274.5,49.5C 294.428,17.8672 323.095,1.20054 360.5,-0.5 Z"/></g>
<g><path style="opacity:0.969" fill="#69b9bc" d="M 118.5,5.5 C 85.0176,42.0682 79.6842,82.4015 102.5,126.5C 147.194,100.822 191.861,75.1549 236.5,49.5C 235.358,51.4331 233.692,52.9331 231.5,54C 175.422,85.7876 119.588,117.954 64,150.5C 51.7171,130.15 47.3838,108.15 51,84.5C 58.2612,45.0771 80.7612,18.7438 118.5,5.5 Z"/></g>
<g><path style="opacity:0.969" fill="#6ababd" d="M 392.5,5.5 C 436.075,21.7629 459.075,53.2629 461.5,100C 461.392,118.278 456.558,135.112 447,150.5C 391.412,117.954 335.578,85.7876 279.5,54C 277.308,52.9331 275.642,51.4331 274.5,49.5C 319.139,75.1549 363.806,100.822 408.5,126.5C 411.32,122.889 413.487,118.889 415,114.5C 429.172,73.5414 421.672,37.2081 392.5,5.5 Z"/></g>
<g><path style="opacity:0.987" fill="#6ababd" d="M 391.5,447.5 C 378.77,456.897 365.77,465.897 352.5,474.5C 297.327,501.231 240.661,504.731 182.5,485C 174.361,481.763 166.361,478.263 158.5,474.5C 145.23,465.897 132.23,456.897 119.5,447.5C 62.8805,395.492 40.0472,331.159 51,254.5C 68.628,171.539 117.795,117.039 198.5,91C 271.723,72.643 337.056,87.643 394.5,136C 455.312,195.061 475.479,265.894 455,348.5C 443.372,387.788 422.206,420.788 391.5,447.5 Z"/></g>
<g><path style="opacity:1" fill="#fefefe" d="M 240.5,129.5 C 308.542,126.831 360.376,154.165 396,211.5C 423.244,264.168 423.244,316.835 396,369.5C 359.891,427.642 307.391,454.809 238.5,451C 172.238,441.061 127.071,404.895 103,342.5C 83.244,275.686 98.4106,218.186 148.5,170C 175.2,147.483 205.867,133.983 240.5,129.5 Z"/></g>
<g><path style="opacity:1" fill="#838383" d="M 274.5,304.5 C 272.5,305.833 270.833,307.5 269.5,309.5C 254.498,317.496 242.831,314.163 234.5,299.5C 211.753,298.98 189.086,298.147 166.5,297C 161.819,291.083 162.819,286.416 169.5,283C 191.174,282.833 212.841,282.333 234.5,281.5C 235.456,279.925 236.123,278.258 236.5,276.5C 238.5,275.167 240.167,273.5 241.5,271.5C 243.258,271.123 244.925,270.456 246.5,269.5C 247.333,237.505 247.833,205.505 248,173.5C 250.435,168.776 254.269,167.276 259.5,169C 261.049,170.214 262.215,171.714 263,173.5C 263.167,205.505 263.667,237.505 264.5,269.5C 279.154,277.835 282.488,289.501 274.5,304.5 Z"/></g>
<g><path style="opacity:1" fill="#fe7765" d="M 241.5,271.5 C 240.167,273.5 238.5,275.167 236.5,276.5C 230.977,272.158 226.477,267.158 223,261.5C 224.422,259.362 226.255,258.195 228.5,258C 233.037,262.369 237.37,266.869 241.5,271.5 Z"/></g>
<g><path style="opacity:1" fill="#fe7664" d="M 274.5,304.5 C 299.465,328.965 324.299,353.632 349,378.5C 349.167,382.333 347.333,384.167 343.5,384C 318.632,359.299 293.965,334.465 269.5,309.5C 270.833,307.5 272.5,305.833 274.5,304.5 Z"/></g>
<g><path style="opacity:0.964" fill="#839f9f" d="M 119.5,447.5 C 132.23,456.897 145.23,465.897 158.5,474.5C 148.369,485.132 138.035,495.632 127.5,506C 124.436,507.859 121.436,509.692 118.5,511.5C 113.833,511.5 109.167,511.5 104.5,511.5C 87.8814,503.479 83.7148,491.145 92,474.5C 101.035,465.298 110.202,456.298 119.5,447.5 Z"/></g>
<g><path style="opacity:0.964" fill="#839f9f" d="M 391.5,447.5 C 400.798,456.298 409.965,465.298 419,474.5C 427.285,491.145 423.119,503.479 406.5,511.5C 401.833,511.5 397.167,511.5 392.5,511.5C 389.564,509.692 386.564,507.859 383.5,506C 372.965,495.632 362.631,485.132 352.5,474.5C 365.77,465.897 378.77,456.897 391.5,447.5 Z"/></g>
</svg>
