<?xml version="1.0"?><svg xmlns="http://www.w3.org/2000/svg" xmlns:xlink="http://www.w3.org/1999/xlink" version="1.1" viewBox="0 0 512 512" style="enable-background:new 0 0 512 512;" xml:space="preserve"><g id="_x32_7_Confetti"><g><linearGradient id="SVGID_1_" gradientUnits="userSpaceOnUse" x1="284.9663" y1="-205.8511" x2="226.5783" y2="880.1655"><stop offset="0" style="stop-color:#EAE9FE"/><stop offset="0.4236" style="stop-color:#EEEEFE"/><stop offset="0.8967" style="stop-color:#FBFBFF"/><stop offset="1" style="stop-color:#FFFFFF"/></linearGradient><path style="fill:url(#SVGID_1_);" d="M468.836,264.275c-9.501-7.393-20.976-13.763-25.395-24.961    c-6.01-15.229,3.596-31.571,9.261-46.931c17.297-46.899-4.903-102.439-44.732-132.645    c-75.982-57.623-224.302-37.425-245.028,42.219c-8.768,33.692,6.941,72.131-9.131,103.013    c-20.279,38.966-74.073,41.594-108.719,58.921C2.169,285.358-6.419,332.1,24.365,367.686    c11.304,13.068,25.769,22.07,36.136,36.348c15.001,20.659,23.415,43.504,43.486,60.545c28.263,23.996,75.517,29.946,100.538,2.586    c14.089-15.407,18.674-38.106,34.054-52.225c20.245-18.586,52.242-16.086,78.004-6.514c25.762,9.571,49.655,25.026,76.789,29.381    c42.426,6.81,87.917-18.085,105.053-57.489C515.561,340.912,502.748,290.664,468.836,264.275z"/><path style="fill:#F9BB40;" d="M419.331,343.899l-17.769,6.271l-104.262,36.635l-56.442,19.859l-53.934,19.024l-56.442,19.859    l-46.797,16.446c-17.556,6.17-34.445-10.727-28.266-28.28l32.68-92.846l29.945-85.238l28.64-81.319l26.81-76.249L419.331,343.899z    "/><polygon style="fill:#FF5859;" points="186.925,425.689 130.483,445.548 88.099,340.868 118.044,255.63   "/><polygon style="fill:#FF5859;" points="297.301,386.806 240.859,406.665 146.684,174.311 173.494,98.062 184.939,109.507   "/><path style="fill:#5EDB6B;" d="M420.072,343.15c-18.052,18.052-87.7-22.401-155.564-90.265    c-67.918-67.918-108.317-137.511-90.264-155.563c17.982-17.982,87.575,22.417,155.493,90.335    C397.6,255.52,438.054,325.168,420.072,343.15z"/><path style="fill:#EDEDED;" d="M347.854,231.973c-3.5-3.5-3.5-9.175,0-12.675l1.055-1.055    c29.023-29.023,76.248-29.026,105.272-0.003c3.5,3.5,3.5,9.175,0,12.675s-9.175,3.5-12.675,0    c-22.033-22.033-57.886-22.033-79.921,0.003l-1.055,1.055C357.029,235.473,351.354,235.473,347.854,231.973z"/><path style="fill:#EDEDED;" d="M287.163,165.914c-3.5-3.5-3.5-9.175,0-12.675l1.055-1.055c22.036-22.036,22.036-57.889,0-79.925    c-3.5-3.5-3.5-9.175,0-12.675s9.175-3.5,12.675,0c29.023,29.023,29.023,76.251,0,105.275l-1.055,1.055    C296.338,169.414,290.663,169.414,287.163,165.914z"/><path style="fill:#EDEDED;" d="M306.218,210.221c-3.5-3.5-3.5-9.175,0-12.675L423.244,80.52c3.5-3.5,9.175-3.5,12.675,0    c3.5,3.5,3.5,9.175,0,12.675L318.893,210.221C315.393,213.721,309.718,213.721,306.218,210.221z"/><path style="fill:#F9BB40;" d="M371.984,105.631l-11.102-3.248l-11.12,3.266c-1.91,0.553-3.695-1.232-3.141-3.141l3.266-11.12    l-3.248-11.102c-0.571-1.928,1.196-3.695,3.123-3.123l11.102,3.248l11.12-3.266c1.91-0.553,3.695,1.232,3.141,3.141l-3.266,11.12    l3.248,11.102C375.679,104.435,373.912,106.202,371.984,105.631z"/><path style="fill:#FF5859;" d="M445.818,269.861l-9.544-2.792l-9.558,2.807c-1.642,0.476-3.176-1.059-2.701-2.7l2.807-9.558    l-2.794-9.543c-0.491-1.657,1.028-3.176,2.685-2.685l9.544,2.792l9.558-2.807c1.642-0.476,3.176,1.059,2.701,2.7l-2.807,9.558    l2.794,9.543C448.994,268.833,447.475,270.352,445.818,269.861z"/><path style="fill:#9CE843;" d="M272.168,96.21l-9.544-2.792l-9.558,2.807c-1.642,0.476-3.176-1.059-2.701-2.7l2.807-9.558    l-2.794-9.543c-0.491-1.657,1.028-3.176,2.685-2.685l9.544,2.792l9.558-2.807c1.642-0.476,3.176,1.059,2.701,2.7l-2.806,9.558    l2.794,9.543C275.344,95.182,273.825,96.701,272.168,96.21z"/><path style="fill:#2769FD;" d="M428.208,151.827l-2.792,9.544l2.808,9.559c0.476,1.642-1.059,3.176-2.701,2.701l-9.559-2.806    l-9.544,2.794c-1.657,0.491-3.176-1.028-2.685-2.685l2.792-9.544l-2.808-9.559c-0.476-1.642,1.059-3.176,2.7-2.701l9.559,2.806    l9.544-2.794C427.18,148.651,428.699,150.17,428.208,151.827z"/><path style="fill:#332E8E;" d="M85.068,465.925c16.003-5.627,301.671-106.121,317.881-111.824l7.221-2.549    c4.876-0.412,9.43-2.035,12.85-5.455c17.861-17.861-9.506-68.208-51.078-118.345c20.38-13.996,48.522-11.986,66.618,6.114    c5.123,5.112,13.45,5.115,18.568-0.003c5.12-5.12,5.12-13.45,0-18.57c-27.905-27.907-71.746-30.394-102.506-7.473    c-4.337-4.78-8.774-9.498-13.27-14.163l97.515-97.515c5.114-5.114,5.152-13.416,0-18.57c-5.12-5.117-13.453-5.113-18.568,0.001    l-97.497,97.497c-4.605-4.418-9.224-8.732-13.844-12.913c25.414-30.849,23.714-76.688-5.117-105.522    c-5.12-5.116-13.453-5.115-18.568,0.001c-5.113,5.113-5.153,13.416,0,18.569c19.039,19.039,20.302,49.208,3.82,69.743    c-18.704-15.475-36.999-28.556-53.736-38.276c-17.565-10.201-50.494-26.692-64.397-11.886c-1.455,1.125-4.53,5.894-5.071,12.338    c-26.201,74.48-96.766,275.075-114.401,325.205C44.17,453.123,64.186,473.27,85.068,465.925z M118.33,267.44l63.088,155.752    l-48.572,17.089l-40.291-99.516C95.19,333.265,83.005,367.93,118.33,267.44z M299.683,381.584l-60.468-149.231    c7.113,7.853,14.575,15.707,22.348,23.48c43.779,43.779,95.936,83.079,130.462,93.263L299.683,381.584z M222.344,212.919    l69.454,171.404l-48.57,17.092l-92.09-227.208l17.22-48.973c3.264,11.047,9.169,22.917,15.172,33.262    C193.362,175.434,206.623,193.971,222.344,212.919z M146.953,186.075l88.414,218.137l-46.076,16.21l-66.779-164.868    L146.953,186.075z M451.233,221.186c0.906,0.906,1.403,2.111,1.403,3.392s-0.497,2.485-1.403,3.389    c-1.867,1.87-4.914,1.872-6.781,0.003c-23.655-23.661-62.155-23.658-85.816,0.003l-1.055,1.055c-1.867,1.872-4.909,1.867-6.781,0    c-0.906-0.906-1.403-2.111-1.403-3.392s0.497-2.485,1.403-3.392l1.056-1.055C379.258,193.79,423.836,193.789,451.233,221.186z     M426.192,83.468c1.868-1.87,4.913-1.87,6.781-0.001c1.87,1.87,1.87,4.913,0,6.782L315.947,207.274    c-1.813,1.813-4.971,1.813-6.778,0c-0.003,0-0.003,0-0.003,0c-1.872-1.872-1.879-4.902,0-6.781L426.192,83.468z M291.165,69.312    c-1.874-1.874-1.877-4.907,0-6.781c1.868-1.87,4.913-1.87,6.781-0.001c27.397,27.4,27.397,71.982,0,99.382l-1.056,1.055    c-1.813,1.813-4.968,1.807-6.781,0c-0.906-0.906-1.403-2.11-1.403-3.392c0-1.281,0.497-2.484,1.403-3.39l1.056-1.055    C314.826,131.471,314.826,92.972,291.165,69.312z M231.17,113.881c16.276,9.453,34.09,22.206,52.331,37.281    c-1.992,2.362-3.13,5.287-3.13,8.414c0,3.508,1.365,6.805,3.845,9.285c2.559,2.56,5.921,3.839,9.282,3.839    c3.365,0,6.726-1.279,9.285-3.839l0.543-0.543c4.531,4.1,9.062,8.311,13.581,12.645l-13.635,13.635    c-5.112,5.112-5.152,13.414-0.003,18.569c5.113,5.113,13.418,5.153,18.57,0l13.658-13.658c4.41,4.579,8.648,9.121,12.739,13.623    c-0.766,0.708-1.531,1.418-2.274,2.162l-1.056,1.056c-5.12,5.12-5.12,13.45,0,18.57c0,0,0,0,0,0.003    c5.138,5.127,13.46,5.105,18.568-0.003l1.056-1.056c0.312-0.312,0.653-0.575,0.971-0.877    c43.752,52.788,62.763,96.076,51.625,107.215c-14.044,14.044-78.968-19.566-149.67-90.263    c-32.604-32.607-59.849-66.566-76.713-95.626c-19.368-33.371-16.313-45.406-16.608-46.052    C175.662,85.762,211.627,102.53,231.17,113.881z M59.35,435.098l29.012-82.472l36.611,90.424l-42.668,15.012    C68.021,463.082,54.321,449.393,59.35,435.098z"/><path style="fill:#332E8E;" d="M377.427,74.845c-1.731-1.731-4.265-2.382-6.618-1.7l-9.947,2.922l-9.915-2.902    c-2.352-0.691-4.9-0.057-6.629,1.674c-1.731,1.731-2.374,4.271-1.68,6.617l2.906,9.93l-2.925,9.961    c-0.681,2.343-0.027,4.872,1.701,6.602c1.278,1.275,2.987,1.966,4.743,1.966c0.627,0,1.256-0.087,1.875-0.267l9.947-2.922    l9.915,2.903c2.355,0.696,4.9,0.056,6.632-1.677c1.731-1.731,2.371-4.272,1.674-6.615l-2.903-9.928l2.925-9.961    C379.809,79.104,379.155,76.575,377.427,74.845z M367.859,92.576l2.401,8.208l-8.205-2.401c-0.768-0.227-1.585-0.223-2.347,0.001    l-8.243,2.422l2.423-8.243c0.225-0.765,0.225-1.581,0-2.346l-2.404-8.208l8.211,2.401c0.762,0.227,1.582,0.224,2.344,0    l8.243-2.422l-2.423,8.242C367.634,90.995,367.634,91.809,367.859,92.576z"/><path style="fill:#332E8E;" d="M450.91,242.985c-1.636-1.639-4.035-2.255-6.271-1.612l-8.387,2.464l-8.357-2.445    c-2.228-0.659-4.634-0.054-6.279,1.587c-1.639,1.639-2.247,4.046-1.587,6.262l2.447,8.371l-2.466,8.403    c-0.64,2.222-0.022,4.618,1.617,6.254c1.207,1.205,2.827,1.856,4.485,1.856c0.592,0,1.191-0.081,1.777-0.252l8.387-2.461    l8.371,2.447c2.222,0.654,4.629,0.049,6.265-1.59c1.642-1.639,2.249-4.046,1.59-6.268l-2.45-8.371l2.464-8.395    C453.163,247.02,452.547,244.624,450.91,242.985z M441.709,258.804l1.766,6.029l-6.032-1.764c-0.768-0.223-1.576-0.223-2.344,0    l-6.059,1.78l1.78-6.059c0.225-0.765,0.225-1.579,0-2.344l-1.764-6.029l6.029,1.764c0.768,0.223,1.582,0.223,2.344,0l6.056-1.78    l-1.777,6.056C441.484,257.225,441.484,258.039,441.709,258.804z"/><path style="fill:#332E8E;" d="M277.254,69.331c-1.642-1.642-4.046-2.258-6.265-1.606l-8.384,2.462l-8.357-2.445    c-2.236-0.667-4.64-0.053-6.279,1.585c-1.642,1.64-2.249,4.047-1.59,6.267l2.45,8.371l-2.469,8.402    c-0.64,2.22-0.022,4.614,1.617,6.25c1.207,1.207,2.827,1.86,4.488,1.86c0.594,0,1.191-0.083,1.777-0.254l8.384-2.462l8.368,2.447    c2.236,0.659,4.632,0.047,6.268-1.587c1.642-1.64,2.249-4.047,1.59-6.267l-2.45-8.371l2.469-8.402    C279.511,73.362,278.893,70.968,277.254,69.331z M268.058,85.153l1.766,6.029l-6.032-1.764c-0.768-0.227-1.582-0.222-2.344,0.001    l-6.056,1.779l1.78-6.058c0.225-0.767,0.225-1.581,0-2.346l-1.766-6.029l6.032,1.764c0.768,0.227,1.582,0.222,2.344-0.001    l6.056-1.779l-1.78,6.058C267.833,83.574,267.833,84.388,268.058,85.153z"/><path style="fill:#332E8E;" d="M401.326,176.028c1.639,1.642,4.051,2.248,6.262,1.589l8.374-2.45l8.401,2.466    c0.581,0.168,1.172,0.25,1.761,0.25c1.658,0,3.28-0.653,4.491-1.861c1.636-1.636,2.255-4.031,1.609-6.267l-2.464-8.387l2.445-8.36    c0.659-2.232,0.054-4.636-1.587-6.276c-1.639-1.642-4.051-2.245-6.268-1.59l-8.368,2.452l-8.403-2.468    c-2.225-0.644-4.613-0.023-6.249,1.613s-2.255,4.032-1.609,6.267l2.464,8.386l-2.445,8.357    C399.077,171.983,399.685,174.39,401.326,176.028z M414.803,155.936c0.768,0.224,1.579,0.227,2.347,0l6.029-1.765l-1.764,6.029    c-0.225,0.767-0.225,1.581,0,2.346l1.78,6.058l-6.056-1.779c-0.385-0.113-0.779-0.168-1.175-0.168    c-0.393,0-0.79,0.056-1.169,0.168l-6.032,1.764l1.764-6.029c0.225-0.767,0.225-1.581,0-2.346l-1.78-6.058L414.803,155.936z"/></g></g><g id="Layer_1"/></svg>