<?xml version="1.0" encoding="UTF-8"?>
<!DOCTYPE svg PUBLIC "-//W3C//DTD SVG 1.1//EN" "http://www.w3.org/Graphics/SVG/1.1/DTD/svg11.dtd">
<svg xmlns="http://www.w3.org/2000/svg" version="1.1" width="512px" height="512px" style="shape-rendering:geometricPrecision; text-rendering:geometricPrecision; image-rendering:optimizeQuality; fill-rule:evenodd; clip-rule:evenodd" xmlns:xlink="http://www.w3.org/1999/xlink">
<g><path style="opacity:0.991" fill="#feda4b" d="M 243.5,-0.5 C 251.5,-0.5 259.5,-0.5 267.5,-0.5C 338.732,9.5589 390.232,46.8922 422,111.5C 442.696,162.278 438.029,210.611 408,256.5C 393.086,277.994 378.419,299.66 364,321.5C 359.06,330.513 355.227,339.846 352.5,349.5C 333.833,349.5 315.167,349.5 296.5,349.5C 296.5,311.5 296.5,273.5 296.5,235.5C 342.237,240.354 360.07,220.354 350,175.5C 345.498,165.648 337.998,159.148 327.5,156C 317.481,154.103 307.481,154.103 297.5,156C 282.325,160.483 273.825,170.65 272,186.5C 271.5,194.827 271.334,203.16 271.5,211.5C 260.833,211.5 250.167,211.5 239.5,211.5C 244.974,168.139 226.307,149.639 183.5,156C 169.461,159.897 161.294,169.064 159,183.5C 157.141,196.366 158.807,208.7 164,220.5C 168.842,227.334 175.342,231.834 183.5,234C 193.768,235.399 204.102,235.899 214.5,235.5C 214.5,273.5 214.5,311.5 214.5,349.5C 195.833,349.5 177.167,349.5 158.5,349.5C 155.773,339.846 151.94,330.513 147,321.5C 131.333,298.167 115.667,274.833 100,251.5C 68.6885,197.839 68.6885,144.173 100,90.5C 133.921,38.2864 181.754,7.95303 243.5,-0.5 Z"/></g>
<g><path style="opacity:1" fill="#ffe997" d="M 240.5,24.5 C 266.894,22.4206 291.894,27.2539 315.5,39C 329.562,46.2948 339.062,57.4615 344,72.5C 346.282,90.7784 340.115,105.612 325.5,117C 292.019,138.487 256.019,143.82 217.5,133C 199.516,127.769 184.682,117.935 173,103.5C 161.989,83.1286 164.822,64.9619 181.5,49C 198.813,35.0651 218.48,26.8985 240.5,24.5 Z"/></g>
<g><path style="opacity:1" fill="#e1bb23" d="M 296.5,349.5 C 288.167,349.5 279.833,349.5 271.5,349.5C 271.5,311.5 271.5,273.5 271.5,235.5C 260.833,235.5 250.167,235.5 239.5,235.5C 239.5,273.5 239.5,311.5 239.5,349.5C 231.167,349.5 222.833,349.5 214.5,349.5C 214.5,311.5 214.5,273.5 214.5,235.5C 204.102,235.899 193.768,235.399 183.5,234C 175.342,231.834 168.842,227.334 164,220.5C 158.807,208.7 157.141,196.366 159,183.5C 161.294,169.064 169.461,159.897 183.5,156C 226.307,149.639 244.974,168.139 239.5,211.5C 250.167,211.5 260.833,211.5 271.5,211.5C 271.334,203.16 271.5,194.827 272,186.5C 273.825,170.65 282.325,160.483 297.5,156C 307.481,154.103 317.481,154.103 327.5,156C 337.998,159.148 345.498,165.648 350,175.5C 360.07,220.354 342.237,240.354 296.5,235.5C 296.5,273.5 296.5,311.5 296.5,349.5 Z"/></g>
<g><path style="opacity:1" fill="#feda4a" d="M 194.5,178.5 C 203.486,177.906 209.986,181.573 214,189.5C 214.5,196.826 214.666,204.159 214.5,211.5C 207.825,211.666 201.158,211.5 194.5,211C 183.74,206.505 180.24,198.672 184,187.5C 186.468,183.199 189.968,180.199 194.5,178.5 Z"/></g>
<g><path style="opacity:1" fill="#feda4a" d="M 308.5,178.5 C 324.561,178.976 330.728,186.976 327,202.5C 324.545,207.149 320.712,209.983 315.5,211C 309.175,211.5 302.842,211.666 296.5,211.5C 296.334,204.159 296.5,196.826 297,189.5C 299.412,184.252 303.246,180.586 308.5,178.5 Z"/></g>
<g><path style="opacity:1" fill="#feda4a" d="M 271.5,349.5 C 260.833,349.5 250.167,349.5 239.5,349.5C 239.5,311.5 239.5,273.5 239.5,235.5C 250.167,235.5 260.833,235.5 271.5,235.5C 271.5,273.5 271.5,311.5 271.5,349.5 Z"/></g>
<g><path style="opacity:0.987" fill="#8b8c8b" d="M 158.5,349.5 C 177.167,349.5 195.833,349.5 214.5,349.5C 222.833,349.5 231.167,349.5 239.5,349.5C 250.167,349.5 260.833,349.5 271.5,349.5C 279.833,349.5 288.167,349.5 296.5,349.5C 315.167,349.5 333.833,349.5 352.5,349.5C 367.084,356.344 372.25,367.677 368,383.5C 365.002,391.164 359.502,395.997 351.5,398C 287.5,398.667 223.5,398.667 159.5,398C 145.298,392.775 139.465,382.608 142,367.5C 144.619,358.719 150.119,352.719 158.5,349.5 Z"/></g>
<g><path style="opacity:0.986" fill="#8b8c8b" d="M 175.5,414.5 C 228.834,414.333 282.168,414.5 335.5,415C 349.384,419.92 355.217,429.753 353,444.5C 350.158,454.009 343.991,460.175 334.5,463C 281.833,463.667 229.167,463.667 176.5,463C 160.744,457.564 154.911,446.731 159,430.5C 161.752,422.247 167.252,416.913 175.5,414.5 Z"/></g>
<g><path style="opacity:0.973" fill="#8b8c8b" d="M 270.5,511.5 C 260.5,511.5 250.5,511.5 240.5,511.5C 226.282,508.059 213.282,501.892 201.5,493C 197.082,489.253 193.416,484.92 190.5,480C 233.833,479.333 277.167,479.333 320.5,480C 312.183,491.973 301.183,500.64 287.5,506C 281.746,507.975 276.079,509.808 270.5,511.5 Z"/></g>
</svg>
