<?xml version="1.0"?><svg enable-background="new 0 0 64 64" version="1.1" viewBox="0 0 64 64" xml:space="preserve" xmlns="http://www.w3.org/2000/svg" xmlns:xlink="http://www.w3.org/1999/xlink"><g id="row_4"><g id="day_x5F_n_x5F_night"><g><path d="M61.3,31.3c0.1,0.3-0.1,0.6-0.4,0.7c-1.3,0-2.5,0.7-3.4,1.7c-0.6,0.7-1.5,1.2-2.5,1.4     c-1.3,0.3-2.4,1.3-2.7,2.6h0C52.7,35.9,53,34,53,32c0-1.9-0.2-3.7-0.7-5.5c0.7,2.5,3.2,4,5.7,3.4c0.7-0.2,1.4-0.2,2,0.2     C60.6,30.3,61,30.8,61.3,31.3z" fill="#FFF9C4"/><path d="M57.1,44.8c0.4,0.5,0.5,1.2,0.4,1.8c0,0.3-0.4,0.5-0.7,0.4c-1.2-0.6-2.5-0.7-3.8-0.3     c-0.9,0.3-1.9,0.3-2.8,0c-1.3-0.4-2.7-0.1-3.7,0.9h0c2.7-2.7,4.7-6.1,5.7-9.9h0l0,0c-0.8,2.5,0.7,5.3,3.2,6     C56.1,43.8,56.7,44.2,57.1,44.8z" fill="#FFF59D"/><path d="M56.9,16.3c0.3,0.2,0.2,0.6-0.1,0.8c-1.1,0.7-1.9,1.9-2.1,3.1c-0.2,0.9-0.7,1.8-1.4,2.4     c-1,0.9-1.5,2.3-1.1,3.6v0c0,0.1,0,0.1,0.1,0.2c-1-3.9-3-7.3-5.8-10.1c1.8,1.9,4.9,2.1,6.8,0.2c0.5-0.5,1.1-0.8,1.8-0.9     C55.8,15.7,56.4,15.9,56.9,16.3z" fill="#FFF59D"/><path d="M52.3,26.5c0.4,1.8,0.7,3.6,0.7,5.5c0,2-0.3,3.9-0.7,5.7c-1,3.8-3,7.2-5.7,9.9c-2.7,2.7-6.2,4.8-10.1,5.8     c-1.7,0.4-3.4,0.7-5.2,0.7c-6-5.4-9.8-13.3-9.8-22s3.8-16.6,9.8-22c1.8,0,3.6,0.3,5.3,0.7c3.8,1,7.2,3,9.9,5.7     C49.3,19.2,51.3,22.6,52.3,26.5z" fill="#FFF9C4"/><path d="M47.2,56.1c0,0.7-0.2,1.3-0.5,1.7c-0.2,0.3-0.6,0.2-0.8,0c-0.7-1.1-1.8-1.9-3.1-2.1     c-0.9-0.2-1.8-0.7-2.4-1.4c-0.9-1-2.3-1.5-3.6-1.1h0c-0.1,0-0.1,0-0.2,0.1c3.9-1,7.3-3,10.1-5.8c-1.9,1.8-2.1,4.9-0.2,6.8     C46.8,54.8,47.2,55.4,47.2,56.1z" fill="#FFD54F"/><path d="M46.6,16.4L46.6,16.4c-2.7-2.7-6.1-4.7-9.9-5.7h0c2.5,0.8,5.3-0.6,5.9-3.2c0.2-0.7,0.5-1.3,1.1-1.7     c0.5-0.4,1.2-0.5,1.8-0.4c0.3,0,0.5,0.4,0.4,0.7c-0.6,1.2-0.7,2.6-0.3,3.8c0.3,0.9,0.3,1.9,0,2.8C45.2,14,45.5,15.5,46.6,16.4z" fill="#FFD54F"/><path d="M36.7,10.7L36.7,10.7C35,10.3,33.2,10,31.3,10c-0.1,0-0.2,0-0.3,0c-1.9,0-3.7,0.2-5.5,0.7     c2.5-0.7,4-3.2,3.4-5.7c-0.2-0.6-0.2-1.4,0.2-2c0.3-0.6,0.8-1,1.3-1.3C30.6,1.6,31,1.8,31,2.2c0,1.3,0.7,2.5,1.7,3.4     C33.4,6.2,33.9,7,34.1,8C34.3,9.3,35.3,10.4,36.7,10.7z" fill="#FFA726"/><path d="M33.2,59c0.2,0.7,0.2,1.4-0.2,2c-0.3,0.6-0.8,1-1.3,1.3c-0.3,0.1-0.6-0.1-0.7-0.4c0-1.3-0.7-2.6-1.7-3.4     c-0.7-0.6-1.2-1.5-1.4-2.5c-0.3-1.3-1.3-2.4-2.6-2.7v0C27.1,53.7,29,54,31,54c0.1,0,0.2,0,0.3,0c1.8,0,3.5-0.3,5.2-0.7     C34,54,32.5,56.5,33.2,59z" fill="#FFA726"/><path d="M31,10c0.1,0,0.2,0,0.3,0c-6,5.4-9.8,13.3-9.8,22s3.8,16.6,9.8,22c-0.1,0-0.2,0-0.3,0     c-2,0-3.9-0.3-5.7-0.7C15.9,50.8,9,42.2,9,32c0-10.3,7-18.9,16.5-21.3C27.3,10.2,29.1,10,31,10z" fill="#BA68C8"/></g><path d="M12.7,3.1l1.8,1.9c0,0,0.1,0,0.1,0l2.6-0.5c0.1,0,0.1,0.1,0.1,0.1L16.1,7c0,0,0,0.1,0,0.1l1.2,2.3    c0,0.1,0,0.2-0.1,0.1l-2.6-0.4c0,0-0.1,0-0.1,0L12.7,11c-0.1,0.1-0.2,0-0.2-0.1l-0.4-2.6c0,0,0-0.1-0.1-0.1L9.8,7.2    C9.7,7.1,9.7,7,9.8,7l2.3-1.2c0,0,0.1,0,0.1-0.1l0.4-2.6C12.5,3.1,12.6,3,12.7,3.1z" fill="#B39DDB"/><path d="M1.8,14.7l2.3,0.3c0,0,0.1,0,0.1,0l1.5-1.7c0-0.1,0.1,0,0.2,0l0.5,2.2c0,0,0,0.1,0.1,0.1l2.1,0.9    c0.1,0,0.1,0.1,0,0.2l-2,1.1c0,0,0,0,0,0.1L6.2,20c0,0.1-0.1,0.1-0.1,0.1l-1.7-1.5c0,0-0.1,0-0.1,0L2,19c-0.1,0-0.1-0.1-0.1-0.1    l1-2.1c0,0,0-0.1,0-0.1l-1.2-2C1.7,14.7,1.7,14.6,1.8,14.7z" fill="#B39DDB"/><path d="M10.7,48.6l1,3.2c0,0,0,0.1,0.1,0.1l3.2,0.9c0.1,0,0.1,0.2,0,0.2l-2.7,2c0,0-0.1,0.1-0.1,0.1l0.1,3.3    c0,0.1-0.1,0.2-0.2,0.1l-2.7-1.9c0,0-0.1,0-0.1,0l-3.1,1.1c-0.1,0-0.2-0.1-0.2-0.2l1-3.2c0,0,0-0.1,0-0.1l-2-2.6    c-0.1-0.1,0-0.2,0.1-0.2l3.3,0c0,0,0.1,0,0.1-0.1l1.9-2.7C10.5,48.5,10.7,48.5,10.7,48.6z" fill="#B39DDB"/><g><polyline fill="none" points="45.5,38 31,38 31,37 41.1,22.5 42,22.5      42,42.5    " stroke="#AD1457" stroke-miterlimit="10" stroke-width="2"/><path d="M29,42H17v-1.5c0-1.9,1-3.5,2.6-4.4     c1.7-0.9,4.9-2.9,6.6-3.8c1.7-1,2.9-2.7,2.9-4.8c0-3-2.5-5.5-5.5-5.5c-0.8,0-1.5,0.1-2.1,0.4c-1.5,0.6-2.8,1.5-4,2.4" fill="none" stroke="#AD1457" stroke-miterlimit="10" stroke-width="2"/></g></g></g><g id="row_3"/><g id="row_2"/><g id="row_1"/></svg>