<?xml version="1.0" encoding="UTF-8"?>
<!DOCTYPE svg PUBLIC "-//W3C//DTD SVG 1.1//EN" "http://www.w3.org/Graphics/SVG/1.1/DTD/svg11.dtd">
<svg xmlns="http://www.w3.org/2000/svg" version="1.1" width="2007px" height="1992px" style="shape-rendering:geometricPrecision; text-rendering:geometricPrecision; image-rendering:optimizeQuality; fill-rule:evenodd; clip-rule:evenodd" xmlns:xlink="http://www.w3.org/1999/xlink">
<g><path style="opacity:0.999" fill="#ecebfd" d="M 962.5,-0.5 C 989.5,-0.5 1016.5,-0.5 1043.5,-0.5C 1298.02,13.1431 1517.68,106.643 1702.5,280C 1863.26,437.34 1961.43,627.84 1997,851.5C 2001.17,881.548 2004.34,911.548 2006.5,941.5C 2006.5,977.5 2006.5,1013.5 2006.5,1049.5C 1987.72,1313.18 1883.72,1536.34 1694.5,1719C 1513.66,1885.06 1300,1975.9 1053.5,1991.5C 1020.17,1991.5 986.833,1991.5 953.5,1991.5C 676.061,1973.35 443.228,1863.01 255,1660.5C 97.5693,1482.52 12.4026,1274.19 -0.5,1035.5C -0.5,1008.83 -0.5,982.167 -0.5,955.5C 14.9826,686.753 118.983,459.253 311.5,273C 494.935,104.004 711.935,12.8374 962.5,-0.5 Z"/></g>
<g><path style="opacity:1" fill="#3d3f99" d="M 968.5,283.5 C 1051.51,280.21 1132.84,290.043 1212.5,313C 1231.78,319.277 1239.94,332.443 1237,352.5C 1230.14,370.137 1217.3,377.304 1198.5,374C 1015.17,321.943 839.501,340.943 671.5,431C 517.557,519.266 411.39,647.099 353,814.5C 307.442,956.988 307.108,1099.66 352,1242.5C 382.905,1335.53 431.072,1418.03 496.5,1490C 497.167,1490.67 497.833,1490.67 498.5,1490C 524.558,1463.27 551.224,1437.27 578.5,1412C 597.476,1404.66 611.976,1409.83 622,1427.5C 631.671,1503.37 640.505,1579.37 648.5,1655.5C 646.719,1675.61 635.719,1686.28 615.5,1687.5C 540.767,1679.47 466.101,1670.97 391.5,1662C 372.709,1653.92 366.209,1640.09 372,1620.5C 373.584,1616.33 375.918,1612.66 379,1609.5C 403.874,1584.96 428.374,1560.13 452.5,1535C 297.415,1359.35 234.581,1154.52 264,920.5C 298.137,715.471 397.97,550.638 563.5,426C 684.264,338.907 819.264,291.407 968.5,283.5 Z"/></g>
<g><path style="opacity:1" fill="#3d3f99" d="M 1382.5,372.5 C 1458.92,379.75 1535.25,387.917 1611.5,397C 1628.75,402.582 1636.92,414.415 1636,432.5C 1634.48,437.882 1632.14,442.882 1629,447.5C 1603.32,473.014 1577.82,498.68 1552.5,524.5C 1699.42,689.079 1763.92,882.079 1746,1103.5C 1722.51,1308.01 1632.34,1476.18 1475.5,1608C 1312.87,1737.35 1127.54,1792.02 919.5,1772C 874.069,1767.12 829.736,1757.78 786.5,1744C 769.863,1735.1 764.363,1721.6 770,1703.5C 777.155,1690.17 788.322,1684 803.5,1685C 984.713,1737.03 1159.05,1719.7 1326.5,1633C 1488.07,1543.35 1597.9,1410.85 1656,1235.5C 1706.56,1066.17 1695.56,900.836 1623,739.5C 1593.31,676.518 1554.98,619.518 1508,568.5C 1481.81,595.028 1455.31,621.195 1428.5,647C 1409.89,655.02 1395.06,650.52 1384,633.5C 1382.53,629.277 1381.53,624.943 1381,620.5C 1372.95,549.022 1365.11,477.522 1357.5,406C 1357.68,388.668 1366.01,377.501 1382.5,372.5 Z"/></g>
<g><path style="opacity:1" fill="#72b1e0" d="M 1423.5,438.5 C 1461.32,442.461 1498.99,446.961 1536.5,452C 1503.32,485.347 1469.99,518.514 1436.5,551.5C 1431.8,513.875 1427.47,476.209 1423.5,438.5 Z"/></g>
<g><path style="opacity:1" fill="#3d3f99" d="M 1038.5,1424.5 C 1036.83,1424.5 1035.17,1424.5 1033.5,1424.5C 1033.5,1467.5 1033.5,1510.5 1033.5,1553.5C 1032.45,1563.72 1027.78,1571.89 1019.5,1578C 999.949,1586.82 984.782,1581.98 974,1563.5C 973.118,1560.21 972.452,1556.88 972,1553.5C 971.5,1510.5 971.333,1467.5 971.5,1424.5C 890.914,1422.89 820.247,1396.06 759.5,1344C 715.511,1301.55 686.345,1250.38 672,1190.5C 656.435,1117.73 655.435,1044.73 669,971.5C 686.698,882.434 719.698,799.434 768,722.5C 827.019,629.465 900.185,548.965 987.5,481C 998.31,476.142 1008.98,476.476 1019.5,482C 1133.2,570.004 1221.36,678.504 1284,807.5C 1327.29,899.647 1347.95,996.647 1346,1098.5C 1344.93,1158.55 1330.93,1215.21 1304,1268.5C 1266.58,1336.67 1210.75,1382.83 1136.5,1407C 1104.62,1417.26 1071.95,1423.09 1038.5,1424.5 Z"/></g>
<g><path style="opacity:1" fill="#72b1e0" d="M 1039.5,1362.5 C 1037.83,1362.5 1036.17,1362.5 1034.5,1362.5C 1034.5,1325.83 1034.5,1289.17 1034.5,1252.5C 1082.13,1205.37 1129.63,1158.03 1177,1110.5C 1189.3,1096.09 1189.63,1081.43 1178,1066.5C 1163.87,1055.14 1149.37,1054.64 1134.5,1065C 1101.63,1098.03 1068.63,1130.87 1035.5,1163.5C 1034.5,1105.34 1034.17,1047 1034.5,988.5C 1066.8,955.701 1099.3,923.035 1132,890.5C 1142.96,874.966 1141.79,860.466 1128.5,847C 1116.4,837.764 1103.74,837.097 1090.5,845C 1072.3,863.368 1053.97,881.535 1035.5,899.5C 1034.83,843.833 1034.17,788.167 1033.5,732.5C 1031.26,720.53 1024.6,712.03 1013.5,707C 992.671,702.413 979.005,710.246 972.5,730.5C 971.833,786.833 971.167,843.167 970.5,899.5C 952.368,881.868 934.368,864.035 916.5,846C 898.769,835.133 883.602,837.966 871,854.5C 864.831,865.989 865.164,877.322 872,888.5C 905.368,921.701 938.535,955.035 971.5,988.5C 971.832,1047.34 971.499,1106 970.5,1164.5C 938.368,1131.87 906.035,1099.37 873.5,1067C 861.363,1056.32 848.029,1054.65 833.5,1062C 821.175,1071.31 817.008,1083.48 821,1098.5C 822.497,1102.16 824.497,1105.5 827,1108.5C 875,1156.5 923,1204.5 971,1252.5C 971.5,1289.17 971.667,1325.83 971.5,1362.5C 925.131,1360.23 881.465,1348.39 840.5,1327C 784.42,1292.52 748.586,1243.02 733,1178.5C 723.321,1136.7 719.654,1094.36 722,1051.5C 728.934,957.122 755.601,868.789 802,786.5C 853.966,694.835 920.966,615.501 1003,548.5C 1041.92,580.084 1077.58,615.084 1110,653.5C 1167.48,720.404 1212.82,795.071 1246,877.5C 1278.84,962.739 1290.18,1050.74 1280,1141.5C 1258.59,1278.73 1178.42,1352.4 1039.5,1362.5 Z"/></g>
<g><path style="opacity:1" fill="#4b5dab" d="M 972.5,730.5 C 972.833,787.171 972.5,843.837 971.5,900.5C 970.893,900.376 970.56,900.043 970.5,899.5C 971.167,843.167 971.833,786.833 972.5,730.5 Z"/></g>
<g><path style="opacity:1" fill="#5879bd" d="M 1033.5,732.5 C 1034.17,788.167 1034.83,843.833 1035.5,899.5C 1035.44,900.043 1035.11,900.376 1034.5,900.5C 1033.5,844.504 1033.17,788.504 1033.5,732.5 Z"/></g>
<g><path style="opacity:1" fill="#4b5cab" d="M 971.5,988.5 C 972.831,1047.33 972.831,1106.33 971.5,1165.5C 970.893,1165.38 970.56,1165.04 970.5,1164.5C 971.499,1106 971.832,1047.34 971.5,988.5 Z"/></g>
<g><path style="opacity:1" fill="#5878bc" d="M 1034.5,988.5 C 1034.17,1047 1034.5,1105.34 1035.5,1163.5C 1035.22,1164.29 1034.72,1164.96 1034,1165.5C 1033.17,1106.33 1033.33,1047.33 1034.5,988.5 Z"/></g>
<g><path style="opacity:1" fill="#5777bb" d="M 1034.5,1252.5 C 1034.5,1289.17 1034.5,1325.83 1034.5,1362.5C 1036.17,1362.5 1037.83,1362.5 1039.5,1362.5C 1037.74,1363.46 1035.74,1363.79 1033.5,1363.5C 1033.17,1326.33 1033.5,1289.33 1034.5,1252.5 Z"/></g>
<g><path style="opacity:1" fill="#9495cb" d="M 1038.5,1424.5 C 1037.43,1425.43 1036.1,1425.77 1034.5,1425.5C 1034.83,1468.34 1034.5,1511 1033.5,1553.5C 1033.5,1510.5 1033.5,1467.5 1033.5,1424.5C 1035.17,1424.5 1036.83,1424.5 1038.5,1424.5 Z"/></g>
<g><path style="opacity:1" fill="#72b1e0" d="M 568.5,1507.5 C 573.769,1544.91 578.102,1582.58 581.5,1620.5C 543.803,1616.66 506.137,1612.5 468.5,1608C 502.035,1574.63 535.368,1541.13 568.5,1507.5 Z"/></g>
<g><path style="opacity:0.16" fill="#fefffe" d="M 1881.5,1910.5 C 1912.83,1910.5 1944.17,1910.5 1975.5,1910.5C 1975.5,1927.17 1975.5,1943.83 1975.5,1960.5C 1944.17,1960.5 1912.83,1960.5 1881.5,1960.5C 1881.5,1943.83 1881.5,1927.17 1881.5,1910.5 Z"/></g>
<g><path style="opacity:0.58" fill="#b5b4c6" d="M 1924.5,1922.5 C 1928.16,1922.35 1929.16,1923.85 1927.5,1927C 1924.04,1927.15 1923.04,1925.65 1924.5,1922.5 Z"/></g>
<g><path style="opacity:0.58" fill="#b2b1c3" d="M 1903.5,1928.5 C 1905.44,1928.87 1907.27,1929.54 1909,1930.5C 1913.9,1927.61 1917.23,1928.94 1919,1934.5C 1919.5,1937.82 1919.67,1941.15 1919.5,1944.5C 1917.83,1944.5 1916.17,1944.5 1914.5,1944.5C 1914.5,1940.83 1914.5,1937.17 1914.5,1933.5C 1913.17,1933.5 1911.83,1933.5 1910.5,1933.5C 1910.5,1937.17 1910.5,1940.83 1910.5,1944.5C 1908.83,1944.5 1907.17,1944.5 1905.5,1944.5C 1905.92,1940.3 1905.42,1936.3 1904,1932.5C 1903.59,1932.96 1903.09,1933.29 1902.5,1933.5C 1901.51,1937.11 1901.18,1940.77 1901.5,1944.5C 1900.17,1944.5 1898.83,1944.5 1897.5,1944.5C 1897.5,1939.5 1897.5,1934.5 1897.5,1929.5C 1899.74,1929.79 1901.74,1929.46 1903.5,1928.5 Z"/></g>
<g><path style="opacity:0.58" fill="#b5b4c6" d="M 1924.5,1929.5 C 1925.83,1929.5 1927.17,1929.5 1928.5,1929.5C 1928.5,1934.5 1928.5,1939.5 1928.5,1944.5C 1926.83,1944.5 1925.17,1944.5 1923.5,1944.5C 1923.22,1939.41 1923.55,1934.41 1924.5,1929.5 Z"/></g>
<g><path style="opacity:0.58" fill="#b3b2c4" d="M 1939.5,1928.5 C 1941.26,1929.55 1941.92,1931.22 1941.5,1933.5C 1940.18,1933.33 1939.01,1933.66 1938,1934.5C 1937.5,1937.82 1937.33,1941.15 1937.5,1944.5C 1935.83,1944.5 1934.17,1944.5 1932.5,1944.5C 1932.23,1940.4 1932.73,1936.4 1934,1932.5C 1935.46,1930.53 1937.29,1929.2 1939.5,1928.5 Z"/></g>
<g><path style="opacity:0.58" fill="#afadc0" d="M 1950.5,1928.5 C 1959.4,1929.63 1962.06,1934.3 1958.5,1942.5C 1953.72,1946.52 1949.22,1946.19 1945,1941.5C 1943.1,1935.34 1944.93,1931.01 1950.5,1928.5 Z"/></g>
<g><path style="opacity:0.161" fill="#fefffe" d="M 1950.5,1932.5 C 1956.25,1933.16 1957.58,1936 1954.5,1941C 1949.5,1941.66 1947.67,1939.5 1949,1934.5C 1949.72,1933.96 1950.22,1933.29 1950.5,1932.5 Z"/></g>
</svg>
